<svg xmlns="http://www.w3.org/2000/svg">
    <defs>
        <svg id="start" viewBox="0 0 24 24" fill="none" xmlns="http://www.w3.org/2000/svg">
            <path d="M24 0V24H0V0H24Z" fill="white" fill-opacity="0.01"/>
            <path fill-rule="evenodd" clip-rule="evenodd" d="M13.5 3C13.5 2.17157 12.8284 1.5 12 1.5C11.1716 1.5 10.5 2.17157 10.5 3V13C10.5 13.8284 11.1716 14.5 12 14.5C12.8284 14.5 13.5 13.8284 13.5 13V3ZM7.85385 5.7491C8.54371 5.29043 8.73113 4.35936 8.27245 3.6695C7.81378 2.97963 6.8827 2.79222 6.19284 3.2509C3.36739 5.12948 1.5 8.34635 1.5 12C1.5 17.799 6.20101 22.5 12 22.5C17.799 22.5 22.5 17.799 22.5 12C22.5 8.34635 20.6326 5.12948 17.8072 3.2509C17.1173 2.79222 16.1862 2.97963 15.7275 3.6695C15.2689 4.35936 15.4563 5.29043 16.1461 5.7491C18.1708 7.09528 19.5 9.39275 19.5 12C19.5 16.1422 16.1421 19.5 12 19.5C7.85786 19.5 4.5 16.1422 4.5 12C4.5 9.39275 5.82917 7.09528 7.85385 5.7491Z" fill="#F7F9FC"/>
        </svg>
        <svg id="stop" viewBox="0 0 24 24" fill="none">
            <path d="M24 0V24H0V0H24Z" fill="white" fill-opacity="0.01"/>
            <path fill-rule="evenodd" clip-rule="evenodd" d="M4 6C4 4.89543 4.89543 4 6 4H18C19.1046 4 20 4.89543 20 6V18C20 19.1046 19.1046 20 18 20H6C4.89543 20 4 19.1046 4 18V6Z" fill="white"/>
        </svg>
        <svg id="delete" viewBox="0 0 24 24" fill="none" xmlns="http://www.w3.org/2000/svg">
            <path d="M24 0V24H0V0H24Z" fill="white" fill-opacity="0.01"/>
            <path fill-rule="evenodd" clip-rule="evenodd" d="M9 3C9 2.44772 9.44772 2 10 2H14C14.5523 2 15 2.44772 15 3C15 3.55228 14.5523 4 14 4H10C9.44772 4 9 3.55228 9 3ZM5.92032 5H4C3.44772 5 3 5.44772 3 6C3 6.55228 3.44772 7 4 7H4.99745L5.9362 20.1425C6.01096 21.1891 6.88184 22 7.93112 22H16.0689C17.1182 22 17.989 21.1891 18.0638 20.1425L19.0025 7H20C20.5523 7 21 6.55228 21 6C21 5.44772 20.5523 5 20 5H18.0797C18.0735 4.99994 18.0673 4.99994 18.0611 5H5.93889C5.93271 4.99994 5.92652 4.99994 5.92032 5Z" fill="#F7F9FC"/>
        </svg>
        <svg id="refresh-1" viewBox="0 0 24 24" fill="none" xmlns="http://www.w3.org/2000/svg">
            <path d="M24 0V24H0V0H24Z" fill="white" fill-opacity="0.01"/>
            <path fill-rule="evenodd" clip-rule="evenodd" d="M10.0589 19.2443C12.8824 20.0009 15.764 19.0421 17.5934 16.9994C18.146 16.3822 19.0943 16.33 19.7115 16.8826C20.3286 17.4353 20.3808 18.3836 19.8282 19.0008C17.2737 21.8532 13.2404 23.2026 9.28249 22.1421C3.6811 20.6412 0.35698 14.8837 1.85787 9.2823C3.35876 3.68091 9.1163 0.356795 14.7177 1.85768C18.9224 2.98433 21.8407 6.50832 22.4032 10.5596C22.4653 11.0066 22.4987 11.4603 22.502 11.9179C22.5117 13.2319 21.0529 13.9572 20.01 13.2545L17.3364 11.4531C15.8701 10.4651 16.8533 8.17943 18.579 8.56459L18.6789 8.58688C17.7458 6.76269 16.0738 5.32688 13.9412 4.75546C9.94024 3.6834 5.82771 6.05777 4.75565 10.0588C3.68358 14.0598 6.05795 18.1723 10.0589 19.2443Z" fill="#F7F9FC"/>
        </svg>
    </defs>
</svg>