<svg xmlns="http://www.w3.org/2000/svg">
    <defs>
        <symbol id="start" viewBox="0 0 24 24" fill="none" xmlns="http://www.w3.org/2000/svg">
            <path d="M24 0V24H0V0H24Z" fill="white" fill-opacity="0.01"/>
            <path fill-rule="evenodd" clip-rule="evenodd" d="M13.5 3C13.5 2.17157 12.8284 1.5 12 1.5C11.1716 1.5 10.5 2.17157 10.5 3V13C10.5 13.8284 11.1716 14.5 12 14.5C12.8284 14.5 13.5 13.8284 13.5 13V3ZM7.85385 5.7491C8.54371 5.29043 8.73113 4.35936 8.27245 3.6695C7.81378 2.97963 6.8827 2.79222 6.19284 3.2509C3.36739 5.12948 1.5 8.34635 1.5 12C1.5 17.799 6.20101 22.5 12 22.5C17.799 22.5 22.5 17.799 22.5 12C22.5 8.34635 20.6326 5.12948 17.8072 3.2509C17.1173 2.79222 16.1862 2.97963 15.7275 3.6695C15.2689 4.35936 15.4563 5.29043 16.1461 5.7491C18.1708 7.09528 19.5 9.39275 19.5 12C19.5 16.1422 16.1421 19.5 12 19.5C7.85786 19.5 4.5 16.1422 4.5 12C4.5 9.39275 5.82917 7.09528 7.85385 5.7491Z" fill="#F7F9FC"/>
        </symbol>
        <symbol id="stop" viewBox="0 0 24 24" fill="none">
            <path d="M24 0V24H0V0H24Z" fill="white" fill-opacity="0.01"/>
            <path fill-rule="evenodd" clip-rule="evenodd" d="M4 6C4 4.89543 4.89543 4 6 4H18C19.1046 4 20 4.89543 20 6V18C20 19.1046 19.1046 20 18 20H6C4.89543 20 4 19.1046 4 18V6Z" fill="white"/>
        </symbol>
        <symbol id="delete" viewBox="0 0 24 24" fill="none" xmlns="http://www.w3.org/2000/svg">
            <path d="M24 0V24H0V0H24Z" fill="white" fill-opacity="0.01"/>
            <path fill-rule="evenodd" clip-rule="evenodd" d="M9 3C9 2.44772 9.44772 2 10 2H14C14.5523 2 15 2.44772 15 3C15 3.55228 14.5523 4 14 4H10C9.44772 4 9 3.55228 9 3ZM5.92032 5H4C3.44772 5 3 5.44772 3 6C3 6.55228 3.44772 7 4 7H4.99745L5.9362 20.1425C6.01096 21.1891 6.88184 22 7.93112 22H16.0689C17.1182 22 17.989 21.1891 18.0638 20.1425L19.0025 7H20C20.5523 7 21 6.55228 21 6C21 5.44772 20.5523 5 20 5H18.0797C18.0735 4.99994 18.0673 4.99994 18.0611 5H5.93889C5.93271 4.99994 5.92652 4.99994 5.92032 5Z" fill="#F7F9FC"/>
        </symbol>
        <symbol id="refresh-1" viewBox="0 0 24 24" fill="none" xmlns="http://www.w3.org/2000/svg">
            <path d="M24 0V24H0V0H24Z" fill="white" fill-opacity="0.01"/>
            <path fill-rule="evenodd" clip-rule="evenodd" d="M10.0589 19.2443C12.8824 20.0009 15.764 19.0421 17.5934 16.9994C18.146 16.3822 19.0943 16.33 19.7115 16.8826C20.3286 17.4353 20.3808 18.3836 19.8282 19.0008C17.2737 21.8532 13.2404 23.2026 9.28249 22.1421C3.6811 20.6412 0.35698 14.8837 1.85787 9.2823C3.35876 3.68091 9.1163 0.356795 14.7177 1.85768C18.9224 2.98433 21.8407 6.50832 22.4032 10.5596C22.4653 11.0066 22.4987 11.4603 22.502 11.9179C22.5117 13.2319 21.0529 13.9572 20.01 13.2545L17.3364 11.4531C15.8701 10.4651 16.8533 8.17943 18.579 8.56459L18.6789 8.58688C17.7458 6.76269 16.0738 5.32688 13.9412 4.75546C9.94024 3.6834 5.82771 6.05777 4.75565 10.0588C3.68358 14.0598 6.05795 18.1723 10.0589 19.2443Z" fill="#F7F9FC"/>
        </symbol>
        <symbol id="pencil" viewBox="0 0 24 24" fill="none" xmlns="http://www.w3.org/2000/svg">
            <path d="M24 0V24H0V0H24Z" fill="white" fill-opacity="0.01"/>
            <path fill-rule="evenodd" clip-rule="evenodd" d="M20.1315 3.16087C18.9599 1.9893 17.0604 1.9893 15.8888 3.16087L15.1817 3.86798L20.1315 8.81773L20.8386 8.11062C22.0101 6.93905 22.0101 5.03955 20.8386 3.86798L20.1315 3.16087ZM18.7172 10.2319L13.7675 5.28219L4.6765 14.3732C4.47771 14.572 4.33879 14.8226 4.27557 15.0966L3.24752 19.5515C3.08116 20.2723 3.72726 20.9182 4.44797 20.7519L8.90288 19.7239C9.17681 19.6606 9.42746 19.5217 9.62625 19.3229L18.7172 10.2319Z" fill="#F7F9FC"/>
        </symbol>
        <symbol id="printer" xmlns="http://www.w3.org/2000/svg" viewBox="0 0 24 24" fill="none" stroke="currentColor" stroke-width="2" stroke-linecap="round" stroke-linejoin="round" class="lucide lucide-printer-icon lucide-printer"><path d="M6 18H4a2 2 0 0 1-2-2v-5a2 2 0 0 1 2-2h16a2 2 0 0 1 2 2v5a2 2 0 0 1-2 2h-2"/><path d="M6 9V3a1 1 0 0 1 1-1h10a1 1 0 0 1 1 1v6"/><rect x="6" y="14" width="12" height="8" rx="1"/></symbol>
        <symbol id="visa" viewBox="0 0 3384.54 2077.85" >
            <style type="text/css">
                .st0{fill:#1434CB;}
            </style>
            <path class="st0" d="M1461.26,739.84l-251.37,599.74h-164l-123.7-478.62c-7.51-29.48-14.04-40.28-36.88-52.7
                c-37.29-20.23-98.87-39.21-153.05-50.99l3.68-17.43h263.99c33.65,0,63.9,22.4,71.54,61.15l65.33,347.04l161.46-408.2H1461.26z
                M2103.84,1143.77c0.66-158.29-218.88-167.01-217.37-237.72c0.47-21.52,20.96-44.4,65.81-50.24c22.23-2.91,83.48-5.13,152.95,26.84
                l27.25-127.18c-37.33-13.55-85.36-26.59-145.12-26.59c-153.35,0-261.27,81.52-262.18,198.25c-0.99,86.34,77.03,134.52,135.81,163.21
                c60.47,29.38,80.76,48.26,80.53,74.54c-0.43,40.23-48.23,57.99-92.9,58.69c-77.98,1.2-123.23-21.1-159.3-37.87l-28.12,131.39
                c36.25,16.63,103.16,31.14,172.53,31.87C1996.72,1348.96,2103.34,1268.45,2103.84,1143.77 M2508.78,1339.58h143.49l-125.25-599.74
                h-132.44c-29.78,0-54.9,17.34-66.02,44l-232.81,555.74h162.91L2291,1250h199.05L2508.78,1339.58z M2335.67,1127.08l81.66-225.18
            l47,225.18H2335.67z M1682.93,739.84l-128.29,599.74H1399.5l128.34-599.74H1682.93z"/>
        </symbol>
        <symbol id="mastercard" viewBox="0 0 152.407 108">
            <rect x="60.4117" y="25.6968" width="31.5" height="56.6064" style="fill: #ff5f00"/>
            <path d="M382.20839,306a35.9375,35.9375,0,0,1,13.7499-28.3032,36,36,0,1,0,0,56.6064A35.938,35.938,0,0,1,382.20839,306Z" transform="translate(-319.79649 -252)" style="fill: #eb001b"/>
            <path d="M454.20349,306a35.99867,35.99867,0,0,1-58.2452,28.3032,36.00518,36.00518,0,0,0,0-56.6064A35.99867,35.99867,0,0,1,454.20349,306Z" transform="translate(-319.79649 -252)" style="fill: #f79e1b"/>
            <path d="M450.76889,328.3077v-1.1589h.4673v-.2361h-1.1901v.2361h.4675v1.1589Zm2.3105,0v-1.3973h-.3648l-.41959.9611-.41971-.9611h-.365v1.3973h.2576v-1.054l.3935.9087h.2671l.39351-.911v1.0563Z" transform="translate(-319.79649 -252)" style="fill: #f79e1b"/>
        </symbol>
        <symbol id="revolut" viewBox="0 0 800 800">
            <rect x="209.051" y="262.097" width="101.445" height="410.21"/>
            <path d="M628.623,285.554c0-87.043-70.882-157.86-158.011-157.86H209.051v87.603h249.125c39.43,0,72.093,30.978,72.814,69.051
		c0.361,19.064-6.794,37.056-20.146,50.66c-13.357,13.61-31.204,21.109-50.251,21.109h-97.046c-3.446,0-6.25,2.8-6.25,6.245v77.859
		c0,1.324,0.409,2.59,1.179,3.656l164.655,228.43h120.53L478.623,443.253C561.736,439.08,628.623,369.248,628.623,285.554z"/>
        </symbol>
        <symbol id="bitcoin" viewBox="0 0 4091.27 4091.73">
            <path fill="#F7931A" fill-rule="nonzero" d="M4030.06 2540.77c-273.24,1096.01 -1383.32,1763.02 -2479.46,1489.71 -1095.68,-273.24 -1762.69,-1383.39 -1489.33,-2479.31 273.12,-1096.13 1383.2,-1763.19 2479,-1489.95 1096.06,273.24 1763.03,1383.51 1489.76,2479.57l0.02 -0.02z"/>
            <path fill="white" fill-rule="nonzero" d="M2947.77 1754.38c40.72,-272.26 -166.56,-418.61 -450,-516.24l91.95 -368.8 -224.5 -55.94 -89.51 359.09c-59.02,-14.72 -119.63,-28.59 -179.87,-42.34l90.16 -361.46 -224.36 -55.94 -92 368.68c-48.84,-11.12 -96.81,-22.11 -143.35,-33.69l0.26 -1.16 -309.59 -77.31 -59.72 239.78c0,0 166.56,38.18 163.05,40.53 90.91,22.69 107.35,82.87 104.62,130.57l-104.74 420.15c6.26,1.59 14.38,3.89 23.34,7.49 -7.49,-1.86 -15.46,-3.89 -23.73,-5.87l-146.81 588.57c-11.11,27.62 -39.31,69.07 -102.87,53.33 2.25,3.26 -163.17,-40.72 -163.17,-40.72l-111.46 256.98 292.15 72.83c54.35,13.63 107.61,27.89 160.06,41.3l-92.9 373.03 224.24 55.94 92 -369.07c61.26,16.63 120.71,31.97 178.91,46.43l-91.69 367.33 224.51 55.94 92.89 -372.33c382.82,72.45 670.67,43.24 791.83,-303.02 97.63,-278.78 -4.86,-439.58 -206.26,-544.44 146.69,-33.83 257.18,-130.31 286.64,-329.61l-0.07 -0.05zm-512.93 719.26c-69.38,278.78 -538.76,128.08 -690.94,90.29l123.28 -494.2c152.17,37.99 640.17,113.17 567.67,403.91zm69.43 -723.3c-63.29,253.58 -453.96,124.75 -580.69,93.16l111.77 -448.21c126.73,31.59 534.85,90.55 468.94,355.05l-0.02 0z"/>
        </symbol>
        <symbol id="nwc" viewBox="0 0 256 256" fill="none">
            <path d="M110.605 31.0659C100.371 20.871 83.7516 20.9801 73.5543 31.2111L7.5804 97.4161C-2.61818 107.648 -2.48842 123.976 7.74253 134.172L115.913 242.342C126.146 252.536 142.733 252.451 152.93 242.22L185.082 210.068C175.705 219.445 167.989 212.703 158.845 203.597L140.911 185.664C127.297 191.053 111.385 188.376 100.355 177.367L86.6891 163.701C86.2293 163.245 85.8745 162.769 85.6252 162.172C85.3759 161.574 85.2473 160.933 85.2467 160.286C85.2462 159.638 85.3737 158.997 85.622 158.4C85.8702 157.802 86.2593 157.295 86.7183 156.839L94.4518 149.105L77.6167 132.27C74.9814 129.64 74.5511 125.393 76.9077 122.524C79.6015 119.23 84.4857 119.055 87.4411 122.004L104.504 139.053L116.061 127.496L99.1857 110.663C96.5492 108.032 96.1201 103.786 98.4968 100.897C99.1272 100.13 99.9112 99.5026 100.798 99.0561C101.686 98.6097 102.656 98.3537 103.648 98.3048C104.64 98.2558 105.631 98.4148 106.558 98.7717C107.485 99.1285 108.327 99.6753 109.03 100.377L126.162 117.395L133.422 110.134C133.878 109.675 134.327 109.261 134.925 109.012C135.522 108.763 136.163 108.634 136.811 108.634C137.458 108.633 138.099 108.76 138.697 109.008C139.295 109.256 139.838 109.62 140.295 110.079L153.983 123.74C164.875 134.611 167.723 150.433 162.631 163.945L180.568 181.882C189.712 190.987 197.363 197.787 206.741 188.41L247.312 147.838C237.56 157.59 229.548 150.077 219.911 140.448L110.605 31.0659Z" fill="url(#paint0_linear_4_519)"/>
            <path d="M187.308 13.0273L152.82 47.4873L229.448 124.116C236.783 131.419 243.158 137.239 250.232 134.417C254.321 132.787 257.128 128.351 255.561 124.238C218.894 28.0253 218.879 28.0238 214.015 17.507C209.151 6.99014 195.471 4.76016 187.308 13.0273Z" fill="#897FFF"/>
            <path d="M187.308 13.0273L152.82 47.4873L229.448 124.116C236.783 131.419 243.158 137.239 250.232 134.417C254.321 132.787 257.128 128.351 255.561 124.238C218.894 28.0253 218.879 28.0238 214.015 17.507C209.151 6.99014 195.471 4.76016 187.308 13.0273Z" fill="#897FFF"/>
            <path d="M187.308 13.0273L152.82 47.4873L229.448 124.116C236.783 131.419 243.158 137.239 250.232 134.417C254.321 132.787 257.128 128.351 255.561 124.238C218.894 28.0253 218.879 28.0238 214.015 17.507C209.151 6.99014 195.471 4.76016 187.308 13.0273Z" fill="#897FFF"/>
            <path d="M187.308 13.0273L152.82 47.4873L229.448 124.116C236.783 131.419 243.158 137.239 250.232 134.417C254.321 132.787 257.128 128.351 255.561 124.238C218.894 28.0253 218.879 28.0238 214.015 17.507C209.151 6.99014 195.471 4.76016 187.308 13.0273Z" fill="#897FFF"/>
            <path d="M187.308 13.0273L152.82 47.4873L229.448 124.116C236.783 131.419 243.158 137.239 250.232 134.417C254.321 132.787 257.128 128.351 255.561 124.238C218.894 28.0253 218.879 28.0238 214.015 17.507C209.151 6.99014 195.471 4.76016 187.308 13.0273Z" fill="#897FFF"/>
            <defs>
                <linearGradient id="paint0_linear_4_519" x1="123.656" y1="10.4403" x2="123.656" y2="249.941" gradientUnits="userSpaceOnUse">
                    <stop stop-color="#FFCA4A"/>
                    <stop offset="1" stop-color="#F7931A"/>
                </linearGradient>
            </defs>
        </symbol>
    </defs>
</svg>