<svg xmlns="http://www.w3.org/2000/svg">
    <defs>
        <symbol id="start" viewBox="0 0 24 24" fill="none" xmlns="http://www.w3.org/2000/svg">
            <path d="M24 0V24H0V0H24Z" fill="white" fill-opacity="0.01"/>
            <path fill-rule="evenodd" clip-rule="evenodd" d="M13.5 3C13.5 2.17157 12.8284 1.5 12 1.5C11.1716 1.5 10.5 2.17157 10.5 3V13C10.5 13.8284 11.1716 14.5 12 14.5C12.8284 14.5 13.5 13.8284 13.5 13V3ZM7.85385 5.7491C8.54371 5.29043 8.73113 4.35936 8.27245 3.6695C7.81378 2.97963 6.8827 2.79222 6.19284 3.2509C3.36739 5.12948 1.5 8.34635 1.5 12C1.5 17.799 6.20101 22.5 12 22.5C17.799 22.5 22.5 17.799 22.5 12C22.5 8.34635 20.6326 5.12948 17.8072 3.2509C17.1173 2.79222 16.1862 2.97963 15.7275 3.6695C15.2689 4.35936 15.4563 5.29043 16.1461 5.7491C18.1708 7.09528 19.5 9.39275 19.5 12C19.5 16.1422 16.1421 19.5 12 19.5C7.85786 19.5 4.5 16.1422 4.5 12C4.5 9.39275 5.82917 7.09528 7.85385 5.7491Z" fill="currentColor"/>
        </symbol>
        <symbol id="stop" viewBox="0 0 24 24" fill="none">
            <path d="M24 0V24H0V0H24Z" fill="white" fill-opacity="0.01"/>
            <path fill-rule="evenodd" clip-rule="evenodd" d="M4 6C4 4.89543 4.89543 4 6 4H18C19.1046 4 20 4.89543 20 6V18C20 19.1046 19.1046 20 18 20H6C4.89543 20 4 19.1046 4 18V6Z" fill="currentColor"/>
        </symbol>
        <symbol id="delete" viewBox="0 0 24 24" fill="none" xmlns="http://www.w3.org/2000/svg">
            <path d="M24 0V24H0V0H24Z" fill="white" fill-opacity="0.01"/>
            <path fill-rule="evenodd" clip-rule="evenodd" d="M9 3C9 2.44772 9.44772 2 10 2H14C14.5523 2 15 2.44772 15 3C15 3.55228 14.5523 4 14 4H10C9.44772 4 9 3.55228 9 3ZM5.92032 5H4C3.44772 5 3 5.44772 3 6C3 6.55228 3.44772 7 4 7H4.99745L5.9362 20.1425C6.01096 21.1891 6.88184 22 7.93112 22H16.0689C17.1182 22 17.989 21.1891 18.0638 20.1425L19.0025 7H20C20.5523 7 21 6.55228 21 6C21 5.44772 20.5523 5 20 5H18.0797C18.0735 4.99994 18.0673 4.99994 18.0611 5H5.93889C5.93271 4.99994 5.92652 4.99994 5.92032 5Z" fill="currentColor"/>
        </symbol>
        <symbol id="refresh-1" viewBox="0 0 24 24" fill="none" xmlns="http://www.w3.org/2000/svg">
            <path d="M24 0V24H0V0H24Z" fill="white" fill-opacity="0.01"/>
            <path fill-rule="evenodd" clip-rule="evenodd" d="M10.0589 19.2443C12.8824 20.0009 15.764 19.0421 17.5934 16.9994C18.146 16.3822 19.0943 16.33 19.7115 16.8826C20.3286 17.4353 20.3808 18.3836 19.8282 19.0008C17.2737 21.8532 13.2404 23.2026 9.28249 22.1421C3.6811 20.6412 0.35698 14.8837 1.85787 9.2823C3.35876 3.68091 9.1163 0.356795 14.7177 1.85768C18.9224 2.98433 21.8407 6.50832 22.4032 10.5596C22.4653 11.0066 22.4987 11.4603 22.502 11.9179C22.5117 13.2319 21.0529 13.9572 20.01 13.2545L17.3364 11.4531C15.8701 10.4651 16.8533 8.17943 18.579 8.56459L18.6789 8.58688C17.7458 6.76269 16.0738 5.32688 13.9412 4.75546C9.94024 3.6834 5.82771 6.05777 4.75565 10.0588C3.68358 14.0598 6.05795 18.1723 10.0589 19.2443Z" fill="currentColor"/>
        </symbol>
        <symbol id="pencil" viewBox="0 0 24 24" fill="none" xmlns="http://www.w3.org/2000/svg">
            <path d="M24 0V24H0V0H24Z" fill="white" fill-opacity="0.01"/>
            <path fill-rule="evenodd" clip-rule="evenodd" d="M20.1315 3.16087C18.9599 1.9893 17.0604 1.9893 15.8888 3.16087L15.1817 3.86798L20.1315 8.81773L20.8386 8.11062C22.0101 6.93905 22.0101 5.03955 20.8386 3.86798L20.1315 3.16087ZM18.7172 10.2319L13.7675 5.28219L4.6765 14.3732C4.47771 14.572 4.33879 14.8226 4.27557 15.0966L3.24752 19.5515C3.08116 20.2723 3.72726 20.9182 4.44797 20.7519L8.90288 19.7239C9.17681 19.6606 9.42746 19.5217 9.62625 19.3229L18.7172 10.2319Z" fill="currentColor"/>
        </symbol>
        <symbol id="check" viewBox="0 0 24 24" fill="none" xmlns="http://www.w3.org/2000/svg">
            <path d="M24 0V24H0V0H24Z" fill="white" fill-opacity="0.01"/>
            <path fill-rule="evenodd" clip-rule="evenodd" d="M21.2919 6.29289C21.6824 6.68342 21.6824 7.31658 21.2919 7.70711L10.2919 18.7071C9.90137 19.0976 9.2682 19.0976 8.87768 18.7071L4.70711 14.5365C4.31658 14.146 4.31658 13.5128 4.70711 13.1223C5.09763 12.7318 5.7308 12.7318 6.12132 13.1223L9.5 16.491L17.8787 8.11232C18.2692 7.7218 18.8924 7.7218 19.2829 8.11232L21.2919 6.29289Z" fill="currentColor"/>
        </symbol>
        <symbol id="printer" xmlns="http://www.w3.org/2000/svg" viewBox="0 0 24 24" fill="none" stroke="currentColor" stroke-width="2" stroke-linecap="round" stroke-linejoin="round" class="lucide lucide-printer-icon lucide-printer"><path d="M6 18H4a2 2 0 0 1-2-2v5a2 2 0 0 1 2-2h16a2 2 0 0 1 2 2v5a2 2 0 0 1-2 2h-2"/><path d="M6 9V3a1 1 0 0 1 1-1h10a1 1 0 0 1 1 1v6"/><rect x="6" y="14" width="12" height="8" rx="1"/></symbol>
        <symbol id="visa" viewBox="0 0 3384.54 2077.85" >
            <style type="text/css">
                .st0{fill:#1434CB;}
            </style>
            <path class="st0" d="M1461.26,739.84l-251.37,599.74h-164l-123.7-478.62c-7.51-29.48-14.04-40.28-36.88-52.7
                c-37.29-20.23-98.87-39.21-153.05-50.99l3.68-17.43h263.99c33.65,0,63.9,22.4,71.54,61.15l65.33,347.04l161.46-408.2H1461.26z
                M2103.84,1143.77c0.66-158.29-218.88-167.01-217.37-237.72c0.47-21.52,20.96-44.4,65.81-50.24c22.23-2.91,83.48-5.13,152.95,26.84
                l27.25-127.18c-37.33-13.55-85.36-26.59-145.12-26.59c-153.35,0-261.27,81.52-262.18,198.25c-0.99,86.34,77.03,134.52,135.81,163.21
                c60.47,29.38,80.76,48.26,80.53,74.54c-0.43,40.23-48.23,57.99-92.9,58.69c-77.98,1.2-123.23-21.1-159.3-37.87l-28.12,131.39
                c36.25,16.63,103.16,31.14,172.53,31.87C1996.72,1348.96,2103.34,1268.45,2103.84,1143.77 M2508.78,1339.58h143.49l-125.25-599.74
                h-132.44c-29.78,0-54.9,17.34-66.02,44l-232.81,555.74h162.91L2291,1250h199.05L2508.78,1339.58z M2335.67,1127.08l81.66-225.18
            l47,225.18H2335.67z M1682.93,739.84l-128.29,599.74H1399.5l128.34-599.74H1682.93z"/>
        </symbol>
        <symbol id="mastercard" viewBox="0 0 152.407 108">
            <rect x="60.4117" y="25.6968" width="31.5" height="56.6064" style="fill: #ff5f00"/>
            <circle cx="67.9117" cy="53.6968" r="26.6064" style="fill: #ffffff"/>
        </symbol>
        <symbol id="revolut" viewBox="0 0 800 800" fill="currentColor">
            <path d="M250,400L400,250L550,400L400,550L250,400Z"/>
        </symbol>
        <symbol id="bitcoin" viewBox="0 0 4091.27 4091.73">
            <path d="M2045.63,0C953.76,0,71.73,942.19,71.73,2045.63c0,1089.24,895.27,2045.63,2045.63,2045.63c1099.13,0,2045.63-942.19,2045.63-2045.63C4091.27,942.19,3144.76,0,2045.63,0z M2728.66,1475.7c-57.79-28.89-146.18-51.66-227.16-65.08c-18.99-31.22-65.08-57.79-112.26-57.79c-65.08,0-98.13,43.16-108.41,82.03c-68.2,31.22-129.36,75.04-129.36,143.24c0,91.35,82.03,143.24,176.49,180.28c169.04,75.04,272.85,158.39,272.85,282.55c0,164.06-150.08,215.95-336.14,215.95c-158.39,0-272.85-48.89-272.85-217.08c0-65.08,37.05-109.91,108.41-140.22c75.04-31.22,140.22-54.61,140.22-120.29c0-91.35-82.03-136.69-202.36-169.04c-34.1-7.77-65.08-23.55-65.08-65.08c0-43.82,43.82-75.04,93.32-89.71c84.52-25.48,202.36-43.82,285.45-54.61c23.55-31.22,65.08-51.66,108.9-51.66c54.61,0,87.64,41.53,96.25,108.9c57.79,28.89,152.06,51.66,227.16,65.08c21.34,31.22,75.04,54.61,117.43,54.61c65.08,0,98.13-41.53,108.41-82.03c54.61-31.22,96.25-75.04,96.25-143.24c0-170.02-150.08-215.95-336.14-215.95C2886.95,1255.36,2728.66,1307.25,2728.66,1475.7z M1646.53,2156.38c-202.36,0-336.14-164.06-336.14-358.12c0-205.27,155.67-358.12,336.14-358.12c174.4,0,305.2,155.67,305.2,358.12C1951.73,1992.32,1820.93,2156.38,1646.53,2156.38z M2266.25,2838.45c-158.39,0-272.85-164.06-272.85-363.32c0-215.95,145.47-363.32,326.16-363.32c190.28,0,326.16,158.39,326.16,363.32C2592.41,2674.39,2456.53,2838.45,2266.25,2838.45z"/>
        </symbol>
        <symbol id="nwc" viewBox="0 0 256 256" fill="none">
            <rect width="256" height="256" rx="48" fill="currentColor" fill-opacity="0.2"/>
            <path d="M128 24C74.8 24 32 66.8 32 120C32 173.2 74.8 216 128 216C181.2 216 224 173.2 224 120C224 66.8 181.2 24 128 24ZM128 192C85.2 192 52 158.8 52 116C52 73.2 85.2 40 128 40C170.8 40 204 73.2 204 116C204 158.8 170.8 192 128 192Z" fill="currentColor"/>
            <path d="M128 64C100.4 64 77.6 80.3 67.6 104H188.4C178.4 80.3 155.6 64 128 64Z" fill="currentColor" fill-opacity="0.5"/>
            <path d="M112 128H144V184H112V128Z" fill="currentColor"/>
        </symbol>
    </defs>
</svg>
